<?xml version="1.0" encoding="UTF-8"?>
<svg data-bbox="0 0 300 300" xmlns="http://www.w3.org/2000/svg" viewBox="0 0 300 300" height="300" width="300" data-type="color">
    <g>
        <path fill="#F3F3F6" d="M300 150c0 82.843-67.157 150-150 150S0 232.843 0 150 67.157 0 150 0s150 67.157 150 150z" data-color="1"/>
        <path fill="#000500" d="M74.812 87.626c-20.68 14.01-25.633 29.625-12.67 48.305 30.001 43.49 109.229 30.063 109.229 30.063l-.582-1.897s-74.86-8.172-91.025-58.813l-4.515-16.491" data-color="2"/>
        <path fill="#000500" d="M239.24 107.765c-1.748-24.956-12.671-37.068-35.391-35.171-52.43 4.378-80.539 79.828-80.539 79.828l1.893.438s44.566-60.856 96.414-49.619l16.457 4.378" data-color="2"/>
        <path fill="#000500" d="M139.913 238.671c22.429 10.946 38.449 7.443 48.061-13.134 22.575-47.722-28.691-109.745-28.691-109.745l-1.311 1.459s30.294 69.029-5.243 108.432l-11.942 12.113" data-color="2"/>
        <path fill="#000500" d="M203.121 196.933c-24.031 24.08-50.683 45.387-79.519 63.337-1.166.73-2.476.876-3.787.584-1.311-.292-2.33-1.167-3.059-2.481C84.57 198.538 66.511 130.969 64.472 63.108c0-1.314.437-2.627 1.456-3.649C66.948 58.438 68.113 58 69.423 58c67.723 2.19 135.154 20.285 194.867 52.392 1.165.584 2.039 1.751 2.476 3.065.291 1.313.145 2.626-.583 3.794-17.914 28.896-39.177 55.602-63.062 79.682Zm-80.393 52.246c53.013-33.858 98.598-79.536 132.387-132.658-55.781-29.041-117.969-45.824-180.74-48.597 2.767 62.899 19.37 125.361 48.353 181.255Z" data-color="2"/>
        <path fill="#000500" d="M198.315 249.471c0-3.211 1.748-5.546 5.097-5.546 2.768 0 4.515 1.751 4.661 4.086h-2.185c-.145-1.167-.874-2.189-2.476-2.189-2.039 0-2.912 1.46-2.912 3.649s.873 3.648 2.912 3.648c1.602 0 2.331-.875 2.476-2.043h2.185c-.291 2.189-1.893 3.94-4.661 3.94-3.349 0-5.097-2.335-5.097-5.545Z" data-color="2"/>
        <path fill="#000500" d="M203.412 261c-6.262 0-11.36-5.108-11.36-11.383 0-6.276 5.098-11.383 11.36-11.383 6.263 0 11.36 5.107 11.36 11.383 0 6.129-5.097 11.383-11.36 11.383Zm0-21.453c-5.534 0-9.903 4.524-9.903 9.924 0 5.546 4.514 9.924 9.903 9.924s9.904-4.524 9.904-9.924c0-5.546-4.369-9.924-9.904-9.924Z" data-color="2"/>
    </g>
</svg>